<svg width="24" height="24" viewBox="0 0 24 24" fill="none" xmlns="http://www.w3.org/2000/svg">
<rect width="24" height="24" fill="black"/>
<path d="M20.9343 4.288L21.6063 5.056V18.752L20.9343 19.456H13.7023L12.5183 20.672H11.4943L10.3103 19.456H3.07825L2.40625 18.752V5.056L3.07825 4.288H10.6302L11.1103 4.544L12.0063 5.376L12.8703 4.544L13.3823 4.288H20.9343ZM11.3343 18.496V6.72L10.3103 5.696H3.81425V18.048H10.6302L11.0463 18.304L11.3343 18.496ZM20.2623 18.048V5.696H13.7023L12.7423 6.656V18.432L12.8703 18.304L13.3823 18.048H20.2623ZM9.31825 8.448V9.792H5.12625V8.448H9.31825ZM9.31825 13.952V15.296H5.12625V13.952H9.31825ZM5.12625 11.2V12.608H9.31825V11.2H5.12625ZM18.8863 8.448V9.792H14.7903V8.448H18.8863ZM14.7903 11.2V12.608H18.8863V11.2H14.7903ZM14.7903 13.952V15.296H18.8863V13.952H14.7903Z" fill="#00FF08"/>
</svg>
